# xmcd
#
# Track frame offsets:
#	225
#	17463
#	40970
#	59258
#	79248
#	100507
#	118460
#	137780
#	156050
#	174562
#	196070
#	218778
#	237453
#	260502
#	285563
#	304108
#	322727
#
# Disc length: 4438 seconds
#
# Revision: 0
# Processed by: cddbd v1.5.2PL0 Copyright (c) Steve Scherf et al.
# Submitted via: audiograbber 1.81.03
#
DISCID=e8115311
DTITLE=Various Artist - Black Beat 2
DYEAR=1996
DGENRE=
TTITLE0=Joyce Sims - Come Into my Life
TTITLE1=Imagination - In The Heat Of The Night
TTITLE2=Barry White - Can't Get Enough Of Your Love
TTITLE3=The Manhattans - Let's Just Kiss And Say Goodbye
TTITLE4=Rufus and Chaka Khan - Ain't Nobody 
TTITLE5=Dennis Edwards feat. Siedah Garrett - Don't Look Any Further
TTITLE6=Billy Ocean - There'll Be Sad Song
TTITLE7=The Commodores - Lady
TTITLE8=Earth, Wind and Fire - Fantasy
TTITLE9=Kool and the Gang - Cherish
TTITLE10=Luther Vandross - Any Love
TTITLE11=Lionel Richie - Hello
TTITLE12=Midnight Star - Don't Rock The Boat
TTITLE13=Spandau Ballet - True
TTITLE14=Stevie Wonder - Lately
TTITLE15=Marvin Gaye - Sexual Healing
TTITLE16=Louis Armstrong - What A Wonderful World
EXTD=
EXTT0=
EXTT1=
EXTT2=
EXTT3=
EXTT4=
EXTT5=
EXTT6=
EXTT7=
EXTT8=
EXTT9=
EXTT10=
EXTT11=
EXTT12=
EXTT13=
EXTT14=
EXTT15=
EXTT16=
PLAYORDER=
